<?xml version="1.0" encoding="UTF-8" standalone="no"?>
<!-- Created with Inkscape (http://www.inkscape.org/) -->

<svg
   width="105.41296mm"
   height="105.41296mm"
   viewBox="0 0 105.41296 105.41296"
   version="1.1"
   id="svg5"
   xml:space="preserve"
   sodipodi:docname="logo.svg"
   inkscape:version="1.2.2 (b0a8486541, 2022-12-01)"
   xmlns:inkscape="http://www.inkscape.org/namespaces/inkscape"
   xmlns:sodipodi="http://sodipodi.sourceforge.net/DTD/sodipodi-0.dtd"
   xmlns="http://www.w3.org/2000/svg"
   xmlns:svg="http://www.w3.org/2000/svg"><sodipodi:namedview
     id="namedview7"
     pagecolor="#ffffff"
     bordercolor="#666666"
     borderopacity="1.0"
     inkscape:showpageshadow="2"
     inkscape:pageopacity="0"
     inkscape:pagecheckerboard="true"
     inkscape:deskcolor="#d1d1d1"
     inkscape:document-units="mm"
     showgrid="false"
     inkscape:zoom="1.3151391"
     inkscape:cx="203.40053"
     inkscape:cy="231.91463"
     inkscape:window-width="1224"
     inkscape:window-height="994"
     inkscape:window-x="56"
     inkscape:window-y="30"
     inkscape:window-maximized="1"
     inkscape:current-layer="layer1" /><defs
     id="defs2" /><g
     inkscape:label="Camada 1"
     inkscape:groupmode="layer"
     id="layer1"
     transform="translate(-50.394239,-86.036649)"><g
       id="g309"
       style="fill:#ffffff"><path
         style="fill:#ffffff;fill-rule:evenodd;stroke-width:5.74772;stroke-linejoin:round"
         d="m 146.75253,327.05886 c -5.29749,-1.54335 -9.75174,-4.09384 -13.85878,-7.9355 -7.60654,-7.11503 -10.41677,-14.6608 -11.03426,-29.62813 -0.24856,-6.02477 -0.0358,-13.38031 0.52778,-18.24902 2.26147,-19.53567 15.86193,-63.91297 29.00368,-94.63688 9.06293,-21.18812 15.20455,-31.78192 20.24014,-34.91264 2.60182,-1.6176 3.63536,-1.77148 10.87144,-1.61866 10.05561,0.21237 18.68345,1.84116 24.63644,4.65093 9.40578,4.43946 18.28096,12.80057 21.32764,20.0923 0.64179,1.53602 1.16689,4.79033 1.16689,7.2318 0,9.37231 -3.75966,16.45428 -28.75169,54.15875 -17.34783,26.17196 -25.60749,39.77442 -32.78172,53.98668 -8.1234,16.0926 -8.89791,19.76105 -4.65185,22.03347 2.06376,1.10449 3.22055,0.98615 8.06026,-0.82462 6.56227,-2.45526 17.02099,-9.87671 23.24791,-16.49659 7.17495,-7.62773 11.71758,-14.24904 20.44785,-29.80466 11.9386,-21.27221 15.35309,-26.06914 20.08658,-28.21913 6.72895,-3.05634 15.21812,-1.10619 16.92092,3.8871 2.19504,6.43675 0.65098,14.56095 -4.98574,26.23297 -6.52861,13.51886 -16.21521,26.46348 -30.20802,40.36829 -14.59498,14.5032 -26.83553,22.56166 -42.20425,27.7848 -6.10006,2.07315 -8.43585,2.46446 -15.8952,2.66294 -5.63418,0.14991 -9.96134,-0.1219 -12.16602,-0.7642 z"
         id="path303"
         transform="matrix(0.26458333,0,0,0.26458333,50.394239,86.036649)" /><path
         style="fill:#ffffff;fill-rule:evenodd;stroke-width:5.74772;stroke-linejoin:round"
         d="m 229.6335,133.48382 c -9.44474,-1.78289 -19.80325,-7.81073 -24.07538,-14.01 -3.63983,-5.28174 -5.009,-10.73484 -5.009,-19.949716 0,-9.415068 1.24299,-12.554228 7.48063,-18.892327 12.51896,-12.720581 33.73997,-15.387644 51.76133,-6.505376 7.41152,3.652951 12.29285,8.630315 14.77377,15.064442 2.41059,6.251729 2.4098,17.764757 -0.002,23.941357 -3.2885,8.42274 -13.00306,16.69111 -22.49874,19.14928 -5.53551,1.43299 -17.74292,2.08733 -22.43109,1.20234 z"
         id="path305"
         transform="matrix(0.26458333,0,0,0.26458333,50.394239,86.036649)" /></g></g></svg>
