<?xml version="1.0" encoding="UTF-8" standalone="no"?>
<svg
   id="Layer_1"
   data-name="Layer 1"
   viewBox="0 0 200 154"
   version="1.1"
   sodipodi:docname="icon.svg"
   inkscape:version="1.2.2 (b0a8486541, 2022-12-01)"
   xmlns:inkscape="http://www.inkscape.org/namespaces/inkscape"
   xmlns:sodipodi="http://sodipodi.sourceforge.net/DTD/sodipodi-0.dtd"
   xmlns="http://www.w3.org/2000/svg"
   xmlns:svg="http://www.w3.org/2000/svg">
  <sodipodi:namedview
     id="namedview246"
     pagecolor="#ffffff"
     bordercolor="#000000"
     borderopacity="0.25"
     inkscape:showpageshadow="2"
     inkscape:pageopacity="0.0"
     inkscape:pagecheckerboard="0"
     inkscape:deskcolor="#d1d1d1"
     showgrid="false"
     inkscape:zoom="2.7221656"
     inkscape:cx="46.286677"
     inkscape:cy="99.369413"
     inkscape:window-width="1920"
     inkscape:window-height="1006"
     inkscape:window-x="0"
     inkscape:window-y="0"
     inkscape:window-maximized="1"
     inkscape:current-layer="Layer_1" />
  <defs
     id="defs223">
    <style
       id="style221">.cls-1{fill:#2991c9;}.cls-2{fill:#069;}.cls-3{fill:#002a44;}.cls-4{fill:#fff;}</style>
  </defs>
  <rect
     class="cls-1"
     width="200"
     height="154"
     rx="12"
     id="rect225" />
  <circle
     class="cls-2"
     cx="33.56"
     cy="15.79"
     r="5.53"
     id="circle227" />
  <circle
     class="cls-2"
     cx="51.13"
     cy="15.79"
     r="5.53"
     id="circle229" />
  <circle
     class="cls-2"
     cx="15.99"
     cy="15.79"
     r="5.53"
     id="circle231" />
  <g
     id="g284"
     transform="matrix(0.62543092,0,0,0.62543092,131.06571,-30.178667)">
    <path
       id="path6"
       class="cls-4"
       d="m 73,95 a 14.8,14.8 0 0 1 7.85,-4.41 c 1,0 2,-0.14 3,-0.19 a 9.65,9.65 0 0 1 3.33,0.87 13.78,13.78 0 0 1 4.23,3.85 17.8,17.8 0 0 1 3.33,7.57 19.08,19.08 0 0 1 0.09,2.83 12.05,12.05 0 0 1 -1.4,-2.51 A 12.19,12.19 0 0 0 91,100.09 7.72,7.72 0 0 0 85.82,98 a 7.21,7.21 0 0 0 -2.18,0.27 10.73,10.73 0 0 0 -5.2,3.16 c -0.46,0.54 -1,1.05 -1.37,1.6 a 23.88,23.88 0 0 0 -1.23,2.1 A 16.72,16.72 0 0 0 74,112 c 0.1,0.95 0.1,1.86 0.19,2.82 0.27,0.64 0.13,1.51 0.82,1.87 a 2.24,2.24 0 0 0 1.36,-0.35 18.42,18.42 0 0 0 2.92,-2.73 c 1.1,-0.92 1.87,-2.11 2.92,-3.1 0.59,-0.46 0.95,-1 1.55,-1.51 a 20.69,20.69 0 0 1 3.5,-2.82 5.87,5.87 0 0 1 3.24,-0.87 5.12,5.12 0 0 1 3.46,2.05 15.78,15.78 0 0 1 2.45,5.47 c 0.23,1 0.14,2 0.28,3.1 a 35.42,35.42 0 0 1 -1.82,10.21 14.66,14.66 0 0 1 -1.6,3.28 c -0.23,0.28 -0.37,0.64 -0.7,0.73 a 16.54,16.54 0 0 1 0.35,-2 9.22,9.22 0 0 0 0.09,-2.23 22.21,22.21 0 0 0 0,-3.46 c -0.28,-1.14 -0.32,-2.37 -0.7,-3.5 a 8.77,8.77 0 0 0 -0.92,-2.37 3.53,3.53 0 0 0 -0.91,-1.28 3.07,3.07 0 0 0 -1.64,-0.7 7,7 0 0 0 -1.32,0.41 12.06,12.06 0 0 0 -2.64,2.45 15.32,15.32 0 0 1 -2.24,1.92 6,6 0 0 1 -4.14,1.18 13.5,13.5 0 0 1 -5.66,-2 11.94,11.94 0 0 1 -2.23,-1.78 11.16,11.16 0 0 1 -3,-6.29 4.93,4.93 0 0 1 -0.14,-2.19 A 19.15,19.15 0 0 1 69.53,100 22.51,22.51 0 0 1 71.81,96.59 3.41,3.41 0 0 1 73,95 Z"
       transform="translate(0,-23)" />
    <path
       id="path3742"
       class="cls-4"
       d="m 49.76,134.16 a 14.75,14.75 0 0 1 -7.84,4.42 c -1,0 -2,0.14 -3,0.18 a 9.37,9.37 0 0 1 -3.33,-0.86 13.68,13.68 0 0 1 -4.2,-3.9 18.06,18.06 0 0 1 -3.33,-7.56 19.12,19.12 0 0 1 -0.09,-2.83 11.43,11.43 0 0 1 1.4,2.51 12.19,12.19 0 0 0 2.42,2.92 7.72,7.72 0 0 0 5.15,2.14 6.91,6.91 0 0 0 2.18,-0.28 10.63,10.63 0 0 0 5.2,-3.15 c 0.46,-0.55 1,-1 1.37,-1.6 a 22.51,22.51 0 0 0 1.23,-2.1 16.42,16.42 0 0 0 1.87,-6.93 c -0.09,-1 -0.09,-1.87 -0.18,-2.82 -0.28,-0.64 -0.14,-1.51 -0.83,-1.87 a 2.31,2.31 0 0 0 -1.36,0.35 18,18 0 0 0 -2.92,2.74 c -1.09,0.91 -1.87,2.1 -2.92,3.09 -0.59,0.46 -0.95,1.05 -1.55,1.51 a 21.09,21.09 0 0 1 -3.5,2.82 5.88,5.88 0 0 1 -3.24,0.87 5.07,5.07 0 0 1 -3.46,-2 15.78,15.78 0 0 1 -2.45,-5.47 c -0.23,-1 -0.14,-2 -0.28,-3.1 a 35.88,35.88 0 0 1 1.82,-10.24 14.66,14.66 0 0 1 1.6,-3.28 c 0.23,-0.28 0.35,-0.64 0.69,-0.73 a 17,17 0 0 1 -0.35,2 8.84,8.84 0 0 0 -0.1,2.24 22.21,22.21 0 0 0 0,3.46 c 0.27,1.14 0.32,2.37 0.68,3.51 a 9.16,9.16 0 0 0 0.91,2.36 3.68,3.68 0 0 0 0.92,1.28 3,3 0 0 0 1.64,0.68 6.3,6.3 0 0 0 1.32,-0.41 12.06,12.06 0 0 0 2.64,-2.45 15.71,15.71 0 0 1 2.23,-1.91 6,6 0 0 1 4.15,-1.19 13.38,13.38 0 0 1 5.66,2 11.89,11.89 0 0 1 2.23,1.77 11.3,11.3 0 0 1 3.05,6.31 5.09,5.09 0 0 1 0.14,2.19 19.15,19.15 0 0 1 -2.14,8.34 22.12,22.12 0 0 1 -2.19,3.43 3.91,3.91 0 0 1 -1.24,1.56 z"
       transform="translate(0,-23)" />
    <path
       id="path10"
       class="cls-4"
       d="m 56,97.56 a 7.55,7.55 0 0 1 6.2,0.45 5.14,5.14 0 0 1 1.6,1.92 3.39,3.39 0 0 1 -0.19,3 6.73,6.73 0 0 1 -5.6,3.56 6.43,6.43 0 0 1 -3.16,-0.41 4.57,4.57 0 0 1 -2.69,-2.78 3.47,3.47 0 0 1 0.46,-2.83 6.28,6.28 0 0 1 3.38,-2.91 z"
       transform="translate(0,-23)" />
    <path
       id="path12"
       class="cls-4"
       d="m 56.14,109.64 a 4.69,4.69 0 0 1 4.06,-2.24 6.3,6.3 0 0 1 2.41,0.64 3.69,3.69 0 0 1 2.24,2.51 19.5,19.5 0 0 0 0.41,4 15.31,15.31 0 0 0 4.6,6.88 c 1,1.19 2.37,2 3.37,3.19 a 30.93,30.93 0 0 1 -4.6,-0.48 15.63,15.63 0 0 1 -5.29,-1.87 11.74,11.74 0 0 1 -2.6,-1.78 14.39,14.39 0 0 1 -3.23,-3.6 11.54,11.54 0 0 1 -1.87,-5.26 6,6 0 0 1 0.5,-1.99 z"
       transform="translate(0,-23)" />
  </g>
  <g
     id="g479"
     transform="translate(-1.5054457)">
    <g
       id="g462"
       transform="translate(0,-0.53113275)">
      <g
         id="g415">
        <rect
           style="fill:#ffffff"
           id="rect338"
           width="62.115421"
           height="21.81337"
           x="21.366423"
           y="52.718887"
           ry="10.906685" />
        <circle
           class="cls-3"
           cx="72.675804"
           cy="63.662121"
           id="circle387"
           r="8.503129"
           style="stroke-width:0.198671" />
      </g>
      <g
         id="g450">
        <g
           id="g418">
          <rect
             style="fill:#ffffff"
             id="rect389"
             width="62.115421"
             height="21.81337"
             x="21.366423"
             y="79.718887"
             ry="10.906685" />
        </g>
        <circle
           class="cls-3"
           cx="32.675804"
           cy="90.625572"
           id="circle391"
           r="8.503129"
           style="stroke-width:0.198671" />
      </g>
      <g
         id="g427">
        <rect
           style="fill:#ffffff"
           id="rect393"
           width="62.115421"
           height="21.81337"
           x="21.366423"
           y="106.71889"
           ry="10.906685" />
        <circle
           class="cls-3"
           cx="72.675804"
           cy="117.66212"
           id="circle395"
           r="8.503129"
           style="stroke-width:0.198671" />
      </g>
    </g>
    <g
       id="g432">
      <path
         class="cls-3"
         d="m 181.34854,84.701833 a 2.9653174,2.9653174 0 0 0 -1.94898,-2.200074 l -7.60461,-2.128333 a 4.8903824,4.8903824 0 0 1 -2.46312,-2.164203 l -1.47071,-2.977275 a 5.0936501,5.0936501 0 0 1 -0.25109,-3.26424 l 2.79792,-7.473079 a 3.3359821,3.3359821 0 0 0 -0.57393,-2.869662 l -3.81426,-3.335982 a 2.391385,2.391385 0 0 0 -2.84575,-0.15544 l -6.77958,3.981656 a 4.6990716,4.6990716 0 0 1 -3.18054,0.251096 l -2.91749,-1.05221 a 4.8903824,4.8903824 0 0 1 -2.46313,-2.164203 l -3.21641,-7.377423 a 2.9653174,2.9653174 0 0 0 -2.39138,-1.638099 16.572298,16.572298 0 0 0 -4.9143,0.382622 2.869662,2.869662 0 0 0 -2.14029,1.98485 l -2.39138,7.628518 a 4.9740809,4.9740809 0 0 1 -2.17616,2.510954 l -2.72618,1.470702 a 4.7827701,4.7827701 0 0 1 -3.16859,0.251095 l -7.31764,-2.917489 a 3.0848867,3.0848867 0 0 0 -2.78596,0.585889 l -3.30011,3.874044 a 2.5707389,2.5707389 0 0 0 -0.14348,2.917489 l 3.90991,6.970888 a 4.9740809,4.9740809 0 0 1 0.2511,3.252283 l -1.00439,2.977275 a 4.9142962,4.9142962 0 0 1 -2.10442,2.522911 l -7.17415,3.587077 a 3.0131451,3.0131451 0 0 0 -1.59027,2.475084 17.863646,17.863646 0 0 0 0.39458,5.045821 2.9055328,2.9055328 0 0 0 1.93702,2.200074 l 7.61656,2.14029 a 4.8903824,4.8903824 0 0 1 2.46313,2.164201 l 1.44678,2.79792 a 5.0577793,5.0577793 0 0 1 0.2511,3.25229 l -2.79792,7.47308 a 3.3001113,3.3001113 0 0 0 0.58589,2.86966 l 3.81426,3.34794 a 2.391385,2.391385 0 0 0 2.84575,0.14348 l 6.77957,-3.9697 a 4.6632008,4.6632008 0 0 1 3.16859,-0.25109 l 2.91749,1.04025 a 4.950167,4.950167 0 0 1 2.46312,2.1642 l 3.22837,7.38938 a 2.9533605,2.9533605 0 0 0 2.39139,1.6381 16.64404,16.64404 0 0 0 4.92625,-0.38262 2.869662,2.869662 0 0 0 2.14029,-1.98485 l 2.05659,-7.79592 a 4.8425547,4.8425547 0 0 1 2.10442,-2.51095 l 2.71422,-1.4707 a 4.6990716,4.6990716 0 0 1 3.18055,-0.2511 l 7.30568,2.89358 a 3.1088005,3.1088005 0 0 0 2.79792,-0.57393 l 3.25228,-3.89796 a 2.5468251,2.5468251 0 0 0 0.13153,-2.91749 l -3.58708,-6.80349 a 5.1773486,5.1773486 0 0 1 -0.2511,-3.26424 l 1.01634,-2.977278 a 4.950167,4.950167 0 0 1 2.09247,-2.522911 l 7.17415,-3.264241 a 3.037059,3.037059 0 0 0 1.59027,-2.475082 17.935388,17.935388 0 0 0 0,-2.534868 18.401708,18.401708 0 0 0 -0.25109,-2.618567 z m -37.50888,23.913847 a 18.473449,18.473449 0 1 1 16.59621,-19.752837 18.306052,18.306052 0 0 1 -16.59621,19.788707 z"
         id="path243"
         style="stroke-width:1.19569" />
      <circle
         class="cls-3"
         cx="142.52847"
         cy="90.094437"
         r="25.269878"
         id="circle397"
         style="stroke-width:0.590418" />
      <path
         id="rect409"
         style="fill:#ffffff;stroke-width:0.372583"
         d="m 153.83913,78.008594 c -1.78434,-0.0092 -2.66299,0.776208 -9.10304,6.666157 l -6.74897,6.172557 -2.35898,-2.10644 c -2.14383,-1.914 -2.48146,-2.13096 -3.70042,-2.38195 -1.67044,-0.343946 -3.05448,-0.04282 -4.36293,0.9495 -1.64055,1.24419 -2.24856,3.54977 -1.42097,5.39114 0.49401,1.09918 8.50557,8.531392 9.79589,9.087462 1.24499,0.53654 2.84085,0.52332 4.18501,-0.0344 1.40564,-0.58327 17.94551,-15.696377 18.65951,-17.049957 1.52821,-2.897158 -0.64444,-6.417749 -4.10629,-6.65386 -0.31071,-0.02119 -0.5839,-0.03887 -0.83881,-0.04018 z" />
    </g>
  </g>
</svg>
